<svg width="1440" height="1024" viewBox="0 0 1440 1024" fill="none" xmlns="http://www.w3.org/2000/svg">
<g clip-path="url(#clip0_1047_692)">
<rect width="1440" height="1024" fill="#EDF3F7"/>
<g opacity="0.3">
<path d="M1222.06 637.056C1358.47 578.578 1451.67 444.745 1429.67 402.451C1407.68 360.157 1239.97 312.96 1119.93 341.598C999.888 370.236 920.536 454.021 952.601 553.933C984.665 653.846 1085.64 695.533 1222.06 637.056Z" fill="#664D84"/>
<path opacity="0.9" d="M1024.23 509.711C1022.82 507.749 1021.26 506.088 1019.54 504.725C1017.84 503.335 1015.99 502.276 1013.99 501.549C1012.02 500.816 1009.92 500.444 1007.7 500.432C1005.48 500.421 1003.17 500.797 1000.76 501.559C996.82 502.81 993.558 504.965 990.975 508.025C988.393 511.085 986.777 514.899 986.128 519.468C985.478 524.037 986.067 529.203 987.894 534.966C989.722 540.728 992.228 545.286 995.413 548.64C998.598 551.993 1002.16 554.166 1006.1 555.158C1010.04 556.151 1014.06 555.994 1018.18 554.689C1021.99 553.48 1025.09 551.603 1027.48 549.058C1029.88 546.484 1031.42 543.445 1032.1 539.94C1032.79 536.406 1032.49 532.603 1031.2 528.53L1033.84 528.267L1013.82 534.614L1011.55 527.465L1036.9 519.428L1039.17 526.577C1040.9 532.058 1041.25 537.196 1040.19 541.989C1039.16 546.775 1036.95 550.933 1033.56 554.462C1030.19 557.964 1025.86 560.552 1020.57 562.228C1014.68 564.097 1009.06 564.352 1003.72 562.994C998.399 561.629 993.682 558.785 989.57 554.462C985.479 550.132 982.321 544.458 980.095 537.439C978.426 532.174 977.629 527.217 977.705 522.568C977.795 517.89 978.67 513.655 980.328 509.863C981.987 506.07 984.342 502.82 987.394 500.112C990.445 497.404 994.105 495.373 998.373 494.02C1001.88 492.907 1005.32 492.401 1008.69 492.501C1012.08 492.572 1015.27 493.194 1018.26 494.367C1021.27 495.511 1024 497.161 1026.45 499.317C1028.89 501.452 1030.92 504.037 1032.55 507.073L1024.23 509.711ZM1081.47 543.062C1076.66 544.587 1072.18 544.841 1068.01 543.824C1063.87 542.778 1060.24 540.637 1057.14 537.4C1054.06 534.134 1051.7 529.945 1050.08 524.832C1048.46 519.72 1047.97 514.918 1048.59 510.428C1049.23 505.909 1050.89 502.023 1053.55 498.77C1056.23 495.489 1059.82 493.134 1064.33 491.705C1066.93 490.881 1069.63 490.5 1072.44 490.563C1075.25 490.626 1078.01 491.303 1080.7 492.593C1083.39 493.862 1085.86 495.893 1088.11 498.686C1090.35 501.479 1092.21 505.204 1093.69 509.862L1094.72 513.112L1056.24 525.311L1054.14 518.682L1084.82 508.955C1083.93 506.139 1082.57 503.804 1080.74 501.952C1078.93 500.092 1076.8 498.85 1074.34 498.224C1071.89 497.592 1069.29 497.715 1066.51 498.594C1063.46 499.563 1061.06 501.159 1059.31 503.383C1057.57 505.579 1056.49 508.068 1056.06 510.85C1055.63 513.633 1055.85 516.4 1056.72 519.151L1058.12 523.571C1059.32 527.34 1060.98 530.33 1063.11 532.539C1065.26 534.72 1067.72 536.121 1070.49 536.744C1073.26 537.346 1076.19 537.155 1079.29 536.173C1081.3 535.534 1083.03 534.676 1084.48 533.597C1085.94 532.49 1087.08 531.174 1087.91 529.648C1088.73 528.1 1089.19 526.357 1089.29 524.417L1097.36 524.148C1097.38 526.908 1096.77 529.534 1095.53 532.024C1094.29 534.493 1092.48 536.687 1090.11 538.607C1087.73 540.506 1084.85 541.991 1081.47 543.062ZM1111.62 499.312L1121.14 529.339L1113.47 531.771L1097.65 481.856L1105.06 479.507L1107.53 487.306L1108.18 487.1C1108.55 484.194 1109.68 481.594 1111.57 479.301C1113.46 476.985 1116.29 475.23 1120.06 474.035C1123.44 472.963 1126.62 472.719 1129.59 473.302C1132.56 473.863 1135.19 475.317 1137.48 477.666C1139.77 479.992 1141.59 483.279 1142.93 487.525L1152.99 519.241L1145.32 521.673L1135.43 490.476C1134.19 486.555 1132.2 483.823 1129.47 482.281C1126.73 480.717 1123.59 480.498 1120.03 481.625C1117.59 482.401 1115.57 483.625 1113.98 485.298C1112.41 486.964 1111.39 488.991 1110.93 491.377C1110.47 493.764 1110.7 496.409 1111.62 499.312ZM1187.61 509.409C1183.11 510.837 1178.81 511.019 1174.73 509.952C1170.67 508.879 1167.08 506.717 1163.95 503.465C1160.84 500.206 1158.47 495.999 1156.83 490.843C1155.19 485.643 1154.69 480.806 1155.34 476.33C1156.02 471.848 1157.71 467.998 1160.41 464.782C1163.13 461.559 1166.74 459.233 1171.25 457.804C1175.76 456.375 1180.04 456.198 1184.1 457.271C1188.18 458.337 1191.78 460.51 1194.89 463.791C1198.03 467.064 1200.42 471.301 1202.07 476.5C1203.7 481.656 1204.18 486.465 1203.5 490.925C1202.83 495.379 1201.14 499.218 1198.42 502.441C1195.72 505.657 1192.12 507.98 1187.61 509.409ZM1185.43 502.519C1188.85 501.434 1191.39 499.664 1193.04 497.208C1194.7 494.753 1195.6 491.927 1195.76 488.731C1195.91 485.534 1195.46 482.268 1194.4 478.932C1193.34 475.595 1191.83 472.655 1189.85 470.11C1187.88 467.565 1185.5 465.755 1182.73 464.679C1179.96 463.603 1176.86 463.608 1173.43 464.693C1170.01 465.779 1167.48 467.56 1165.83 470.037C1164.18 472.514 1163.29 475.362 1163.14 478.58C1162.99 481.797 1163.45 485.075 1164.5 488.411C1165.56 491.747 1167.07 494.677 1169.04 497.2C1171.01 499.723 1173.38 501.512 1176.14 502.566C1178.91 503.62 1182.01 503.605 1185.43 502.519ZM1221.61 497.486L1205.78 447.571L1213.19 445.222L1215.66 453.021L1216.31 452.815C1216.51 449.82 1217.53 447.219 1219.38 445.011C1221.23 442.781 1223.77 441.151 1227.02 440.121C1230.32 439.077 1233.29 438.955 1235.96 439.756C1238.63 440.529 1241.01 442.052 1243.09 444.325L1243.61 444.16C1244.07 441.177 1245.34 438.521 1247.41 436.194C1249.48 433.846 1252.31 432.105 1255.88 430.971C1260.34 429.556 1264.44 429.796 1268.16 431.691C1271.88 433.564 1274.67 437.436 1276.53 443.307L1287.12 476.714L1279.45 479.145L1268.86 445.739C1267.69 442.056 1265.85 439.743 1263.33 438.801C1260.82 437.858 1258.19 437.819 1255.46 438.685C1251.95 439.798 1249.57 441.721 1248.32 444.456C1247.06 447.168 1246.94 450.139 1247.96 453.367L1258.26 485.863L1250.46 488.336L1239.63 454.15C1238.73 451.312 1237.08 449.318 1234.69 448.169C1232.29 446.998 1229.64 446.873 1226.74 447.793C1224.74 448.425 1223.05 449.546 1221.65 451.158C1220.28 452.762 1219.36 454.675 1218.89 456.896C1218.45 459.089 1218.61 461.409 1219.39 463.857L1229.28 495.054L1221.61 497.486ZM1301.14 472.268L1285.32 422.353L1292.99 419.921L1308.81 469.836L1301.14 472.268ZM1286.58 412.798C1285.08 413.272 1283.63 413.171 1282.23 412.496C1280.84 411.815 1279.92 410.759 1279.47 409.329C1279.02 407.899 1279.16 406.507 1279.9 405.152C1280.66 403.79 1281.79 402.873 1283.28 402.399C1284.78 401.925 1286.22 402.029 1287.6 402.71C1289.01 403.385 1289.94 404.437 1290.39 405.867C1290.84 407.297 1290.69 408.693 1289.93 410.054C1289.19 411.409 1288.07 412.324 1286.58 412.798ZM1343.47 459.993C1338.79 461.477 1334.41 461.65 1330.33 460.511C1326.25 459.373 1322.68 457.154 1319.63 453.853C1316.58 450.552 1314.27 446.41 1312.69 441.427C1311.08 436.358 1310.59 431.588 1311.23 427.12C1311.88 422.623 1313.53 418.748 1316.2 415.495C1318.88 412.214 1322.47 409.858 1326.97 408.43C1330.48 407.317 1333.85 406.964 1337.08 407.371C1340.31 407.778 1343.19 408.866 1345.73 410.636C1348.27 412.405 1350.26 414.781 1351.68 417.764L1344.01 420.195C1342.7 418.106 1340.76 416.503 1338.19 415.387C1335.64 414.243 1332.67 414.206 1329.29 415.278C1326.3 416.226 1323.92 417.837 1322.17 420.111C1320.42 422.357 1319.37 425.087 1319.01 428.302C1318.66 431.488 1319.08 434.966 1320.27 438.735C1321.5 442.592 1323.17 445.757 1325.29 448.232C1327.43 450.701 1329.87 452.372 1332.6 453.246C1335.36 454.113 1338.25 454.065 1341.28 453.104C1343.27 452.472 1344.97 451.552 1346.38 450.343C1347.78 449.135 1348.84 447.702 1349.56 446.045C1350.27 444.388 1350.58 442.574 1350.48 440.603L1358.15 438.171C1358.65 441.255 1358.42 444.249 1357.46 447.153C1356.51 450.029 1354.86 452.603 1352.5 454.875C1350.16 457.119 1347.15 458.825 1343.47 459.993ZM1397.05 399.229L1390.78 403.363C1389.98 402.352 1388.99 401.439 1387.8 400.624C1386.63 399.78 1385.21 399.227 1383.56 398.966C1381.9 398.704 1379.95 398.927 1377.72 399.635C1374.67 400.603 1372.35 402.114 1370.76 404.168C1369.18 406.194 1368.73 408.279 1369.41 410.423C1370.02 412.33 1371.19 413.616 1372.93 414.281C1374.66 414.946 1377.12 415.18 1380.3 414.983L1388.29 414.453C1393.09 414.121 1396.94 414.724 1399.84 416.262C1402.73 417.778 1404.73 420.28 1405.83 423.768C1406.74 426.628 1406.73 429.445 1405.79 432.22C1404.88 434.988 1403.17 437.486 1400.66 439.713C1398.15 441.941 1394.95 443.669 1391.07 444.898C1385.98 446.513 1381.42 446.744 1377.38 445.592C1373.34 444.44 1370.21 441.882 1367.97 437.917L1374.68 433.789C1376.22 436.256 1378.17 437.855 1380.53 438.587C1382.9 439.312 1385.66 439.176 1388.8 438.18C1392.38 437.047 1394.97 435.389 1396.59 433.206C1398.23 430.995 1398.71 428.817 1398.03 426.672C1397.48 424.939 1396.41 423.68 1394.83 422.894C1393.23 422.088 1391.09 421.79 1388.39 422.002L1379.45 422.69C1374.54 423.056 1370.65 422.442 1367.78 420.847C1364.93 419.224 1362.96 416.69 1361.87 413.245C1360.98 410.429 1360.98 407.687 1361.87 405.019C1362.79 402.344 1364.43 399.953 1366.78 397.846C1369.17 395.732 1372.11 394.118 1375.62 393.005C1380.56 391.439 1384.78 391.293 1388.29 392.566C1391.81 393.833 1394.73 396.054 1397.05 399.229Z" fill="white"/>
</g>
</g>
<defs>
<clipPath id="clip0_1047_692">
<rect width="1440" height="1024" fill="white"/>
</clipPath>
</defs>
</svg>
